<?xml version="1.0" encoding="UTF-8" standalone="no"?>
<!-- Created with Inkscape (http://www.inkscape.org/) -->

<svg
   version="1.1"
   id="svg1"
   width="289.28"
   height="253.44"
   viewBox="0 0 289.28 253.44"
   xmlns="http://www.w3.org/2000/svg"
   xmlns:svg="http://www.w3.org/2000/svg">
  <defs
     id="defs1">
    <clipPath
       clipPathUnits="userSpaceOnUse"
       id="clipPath2">
      <path
         d="M 0,0 H 904.16663 V 790.77283 H 0 Z"
         transform="scale(0.33511521)"
         clip-rule="evenodd"
         id="path2" />
    </clipPath>
    <clipPath
       clipPathUnits="userSpaceOnUse"
       id="clipPath4">
      <path
         d="M 0,0 H 904.16663 V 784.80475 H 0 Z"
         transform="matrix(0.33511521,0,0,0.33511521,-0.49999999,-0.49999999)"
         clip-rule="evenodd"
         id="path4" />
    </clipPath>
    <clipPath
       clipPathUnits="userSpaceOnUse"
       id="clipPath5">
      <path
         d="M 0,0 H 904.16663 V 784.80475 H 0 Z"
         transform="matrix(0.33511521,0,0,0.33511521,-106.375,-19)"
         clip-rule="evenodd"
         id="path5" />
    </clipPath>
    <clipPath
       clipPathUnits="userSpaceOnUse"
       id="clipPath6">
      <path
         d="M 0,0 H 904.16663 V 784.80475 H 0 Z"
         transform="matrix(0.33511521,0,0,0.33511521,-109.70312,-19)"
         clip-rule="evenodd"
         id="path6" />
    </clipPath>
    <clipPath
       clipPathUnits="userSpaceOnUse"
       id="clipPath7">
      <path
         d="M 0,0 H 904.16663 V 784.80475 H 0 Z"
         transform="matrix(0.33511521,0,0,0.33511521,-2.9999999,-34)"
         clip-rule="evenodd"
         id="path7" />
    </clipPath>
    <clipPath
       clipPathUnits="userSpaceOnUse"
       id="clipPath8">
      <path
         d="M 0,0 H 904.16663 V 784.80475 H 0 Z"
         transform="matrix(0.33511521,0,0,0.33511521,-10,-34)"
         clip-rule="evenodd"
         id="path8" />
    </clipPath>
    <clipPath
       clipPathUnits="userSpaceOnUse"
       id="clipPath9">
      <path
         d="M 0,0 H 904.16663 V 784.80475 H 0 Z"
         transform="matrix(0.33511521,0,0,0.33511521,-117.39062,-34)"
         clip-rule="evenodd"
         id="path9" />
    </clipPath>
    <clipPath
       clipPathUnits="userSpaceOnUse"
       id="clipPath10">
      <path
         d="M 0,0 H 904.16663 V 784.80475 H 0 Z"
         transform="matrix(0.33511521,0,0,0.33511521,-2.9999999,-51)"
         clip-rule="evenodd"
         id="path10" />
    </clipPath>
    <clipPath
       clipPathUnits="userSpaceOnUse"
       id="clipPath11">
      <path
         d="M 0,0 H 904.16663 V 784.80475 H 0 Z"
         transform="matrix(0.33511521,0,0,0.33511521,-141.73438,-51)"
         clip-rule="evenodd"
         id="path11" />
    </clipPath>
    <clipPath
       clipPathUnits="userSpaceOnUse"
       id="clipPath12">
      <path
         d="M 0,0 H 904.16663 V 784.80475 H 0 Z"
         transform="matrix(0.33511521,0,0,0.33511521,-251.0625,-51)"
         clip-rule="evenodd"
         id="path12" />
    </clipPath>
    <clipPath
       clipPathUnits="userSpaceOnUse"
       id="clipPath13">
      <path
         d="M 0,0 H 904.16663 V 784.80475 H 0 Z"
         transform="matrix(0.33511521,0,0,0.33511521,-2.9999999,-67.999999)"
         clip-rule="evenodd"
         id="path13" />
    </clipPath>
    <clipPath
       clipPathUnits="userSpaceOnUse"
       id="clipPath14">
      <path
         d="M 0,0 H 904.16663 V 784.80475 H 0 Z"
         transform="matrix(0.33511521,0,0,0.33511521,-131.06249,-67.999999)"
         clip-rule="evenodd"
         id="path14" />
    </clipPath>
    <clipPath
       clipPathUnits="userSpaceOnUse"
       id="clipPath15">
      <path
         d="M 0,0 H 904.16663 V 784.80475 H 0 Z"
         transform="matrix(0.33511521,0,0,0.33511521,-184.40625,-67.999999)"
         clip-rule="evenodd"
         id="path15" />
    </clipPath>
    <clipPath
       clipPathUnits="userSpaceOnUse"
       id="clipPath16">
      <path
         d="M 0,0 H 904.16663 V 784.80475 H 0 Z"
         transform="matrix(0.33511521,0,0,0.33511521,-226.42188,-67.999999)"
         clip-rule="evenodd"
         id="path16" />
    </clipPath>
    <clipPath
       clipPathUnits="userSpaceOnUse"
       id="clipPath17">
      <path
         d="M 0,0 H 904.16663 V 784.80475 H 0 Z"
         transform="matrix(0.33511521,0,0,0.33511521,-2.9999999,-85)"
         clip-rule="evenodd"
         id="path17" />
    </clipPath>
    <clipPath
       clipPathUnits="userSpaceOnUse"
       id="clipPath18">
      <path
         d="M 0,0 H 904.16663 V 784.80475 H 0 Z"
         transform="matrix(0.33511521,0,0,0.33511521,-131.06249,-85)"
         clip-rule="evenodd"
         id="path18" />
    </clipPath>
    <clipPath
       clipPathUnits="userSpaceOnUse"
       id="clipPath19">
      <path
         d="M 0,0 H 904.16663 V 784.80475 H 0 Z"
         transform="matrix(0.33511521,0,0,0.33511521,-152.40625,-85)"
         clip-rule="evenodd"
         id="path19" />
    </clipPath>
    <clipPath
       clipPathUnits="userSpaceOnUse"
       id="clipPath20">
      <path
         d="M 0,0 H 904.16663 V 784.80475 H 0 Z"
         transform="matrix(0.33511521,0,0,0.33511521,-191.09375,-85)"
         clip-rule="evenodd"
         id="path20" />
    </clipPath>
    <clipPath
       clipPathUnits="userSpaceOnUse"
       id="clipPath21">
      <path
         d="M 0,0 H 904.16663 V 784.80475 H 0 Z"
         transform="matrix(0.33511521,0,0,0.33511521,-2.9999999,-102)"
         clip-rule="evenodd"
         id="path21" />
    </clipPath>
    <clipPath
       clipPathUnits="userSpaceOnUse"
       id="clipPath22">
      <path
         d="M 0,0 H 904.16663 V 784.80475 H 0 Z"
         transform="matrix(0.33511521,0,0,0.33511521,-21,-102)"
         clip-rule="evenodd"
         id="path22" />
    </clipPath>
    <clipPath
       clipPathUnits="userSpaceOnUse"
       id="clipPath23">
      <path
         d="M 0,0 H 904.16663 V 784.80475 H 0 Z"
         transform="matrix(0.33511521,0,0,0.33511521,-63.015624,-102)"
         clip-rule="evenodd"
         id="path23" />
    </clipPath>
    <clipPath
       clipPathUnits="userSpaceOnUse"
       id="clipPath24">
      <path
         d="M 0,0 H 904.16663 V 784.80475 H 0 Z"
         transform="matrix(0.33511521,0,0,0.33511521,-2.9999999,-118)"
         clip-rule="evenodd"
         id="path24" />
    </clipPath>
    <clipPath
       clipPathUnits="userSpaceOnUse"
       id="clipPath25">
      <path
         d="M 0,0 H 904.16663 V 784.80475 H 0 Z"
         transform="matrix(0.33511521,0,0,0.33511521,-149.73437,-118)"
         clip-rule="evenodd"
         id="path25" />
    </clipPath>
    <clipPath
       clipPathUnits="userSpaceOnUse"
       id="clipPath26">
      <path
         d="M 0,0 H 904.16663 V 784.80475 H 0 Z"
         transform="matrix(0.33511521,0,0,0.33511521,-195.07813,-118)"
         clip-rule="evenodd"
         id="path26" />
    </clipPath>
    <clipPath
       clipPathUnits="userSpaceOnUse"
       id="clipPath27">
      <path
         d="M 0,0 H 904.16663 V 784.80475 H 0 Z"
         transform="matrix(0.33511521,0,0,0.33511521,-237.09375,-118)"
         clip-rule="evenodd"
         id="path27" />
    </clipPath>
    <clipPath
       clipPathUnits="userSpaceOnUse"
       id="clipPath28">
      <path
         d="M 0,0 H 904.16663 V 784.80475 H 0 Z"
         transform="matrix(0.33511521,0,0,0.33511521,-2.9999999,-135)"
         clip-rule="evenodd"
         id="path28" />
    </clipPath>
    <clipPath
       clipPathUnits="userSpaceOnUse"
       id="clipPath29">
      <path
         d="M 0,0 H 904.16663 V 784.80475 H 0 Z"
         transform="matrix(0.33511521,0,0,0.33511521,-149.73437,-135)"
         clip-rule="evenodd"
         id="path29" />
    </clipPath>
    <clipPath
       clipPathUnits="userSpaceOnUse"
       id="clipPath30">
      <path
         d="M 0,0 H 904.16663 V 784.80475 H 0 Z"
         transform="matrix(0.33511521,0,0,0.33511521,-160.73437,-135)"
         clip-rule="evenodd"
         id="path30" />
    </clipPath>
    <clipPath
       clipPathUnits="userSpaceOnUse"
       id="clipPath31">
      <path
         d="M 0,0 H 904.16663 V 784.80475 H 0 Z"
         transform="matrix(0.33511521,0,0,0.33511521,-202.75,-135)"
         clip-rule="evenodd"
         id="path31" />
    </clipPath>
    <clipPath
       clipPathUnits="userSpaceOnUse"
       id="clipPath32">
      <path
         d="M 0,0 H 904.16663 V 784.80475 H 0 Z"
         transform="matrix(0.33511521,0,0,0.33511521,-2.9999999,-152)"
         clip-rule="evenodd"
         id="path32" />
    </clipPath>
    <clipPath
       clipPathUnits="userSpaceOnUse"
       id="clipPath33">
      <path
         d="M 0,0 H 904.16663 V 784.80475 H 0 Z"
         transform="matrix(0.33511521,0,0,0.33511521,-53.6875,-152)"
         clip-rule="evenodd"
         id="path33" />
    </clipPath>
    <clipPath
       clipPathUnits="userSpaceOnUse"
       id="clipPath34">
      <path
         d="M 0,0 H 904.16663 V 784.80475 H 0 Z"
         transform="matrix(0.33511521,0,0,0.33511521,-60.6875,-152)"
         clip-rule="evenodd"
         id="path34" />
    </clipPath>
    <clipPath
       clipPathUnits="userSpaceOnUse"
       id="clipPath35">
      <path
         d="M 0,0 H 904.16663 V 784.80475 H 0 Z"
         transform="matrix(0.33511521,0,0,0.33511521,-102.70313,-152)"
         clip-rule="evenodd"
         id="path35" />
    </clipPath>
    <clipPath
       clipPathUnits="userSpaceOnUse"
       id="clipPath36">
      <path
         d="M 0,0 H 904.16663 V 784.80475 H 0 Z"
         transform="matrix(0.33511521,0,0,0.33511521,-2.9999999,-169)"
         clip-rule="evenodd"
         id="path36" />
    </clipPath>
    <clipPath
       clipPathUnits="userSpaceOnUse"
       id="clipPath37">
      <path
         d="M 0,0 H 904.16663 V 784.80475 H 0 Z"
         transform="matrix(0.33511521,0,0,0.33511521,-18.328125,-169)"
         clip-rule="evenodd"
         id="path37" />
    </clipPath>
    <clipPath
       clipPathUnits="userSpaceOnUse"
       id="clipPath38">
      <path
         d="M 0,0 H 904.16663 V 784.80475 H 0 Z"
         transform="matrix(0.33511521,0,0,0.33511521,-129.04687,-169)"
         clip-rule="evenodd"
         id="path38" />
    </clipPath>
    <clipPath
       clipPathUnits="userSpaceOnUse"
       id="clipPath39">
      <path
         d="M 0,0 H 904.16663 V 784.80475 H 0 Z"
         transform="matrix(0.33511521,0,0,0.33511521,-2.9999999,-186)"
         clip-rule="evenodd"
         id="path39" />
    </clipPath>
    <clipPath
       clipPathUnits="userSpaceOnUse"
       id="clipPath40">
      <path
         d="M 0,0 H 904.16663 V 784.80475 H 0 Z"
         transform="matrix(0.33511521,0,0,0.33511521,-48.328125,-186)"
         clip-rule="evenodd"
         id="path40" />
    </clipPath>
    <clipPath
       clipPathUnits="userSpaceOnUse"
       id="clipPath41">
      <path
         d="M 0,0 H 904.16663 V 784.80475 H 0 Z"
         transform="matrix(0.33511521,0,0,0.33511521,-97.03125,-186)"
         clip-rule="evenodd"
         id="path41" />
    </clipPath>
    <clipPath
       clipPathUnits="userSpaceOnUse"
       id="clipPath42">
      <path
         d="M 0,0 H 904.16663 V 784.80475 H 0 Z"
         transform="matrix(0.33511521,0,0,0.33511521,-2.9999999,-202)"
         clip-rule="evenodd"
         id="path42" />
    </clipPath>
    <clipPath
       clipPathUnits="userSpaceOnUse"
       id="clipPath43">
      <path
         d="M 0,0 H 904.16663 V 784.80475 H 0 Z"
         transform="matrix(0.33511521,0,0,0.33511521,-47.46875,-202)"
         clip-rule="evenodd"
         id="path43" />
    </clipPath>
    <clipPath
       clipPathUnits="userSpaceOnUse"
       id="clipPath44">
      <path
         d="M 0,0 H 904.16663 V 784.80475 H 0 Z"
         transform="matrix(0.33511521,0,0,0.33511521,-2.9999999,-220)"
         clip-rule="evenodd"
         id="path44" />
    </clipPath>
    <clipPath
       clipPathUnits="userSpaceOnUse"
       id="clipPath45">
      <path
         d="M 0,0 H 904.16663 V 784.80475 H 0 Z"
         transform="matrix(0.33511521,0,0,0.33511521,-14.65625,-220)"
         clip-rule="evenodd"
         id="path45" />
    </clipPath>
  </defs>
  <g
     id="g1">
    <path
       id="path1"
       d="M 0,0 H 303 V 265 H 0 Z"
       style="fill:#ffffff;fill-opacity:1;fill-rule:nonzero;stroke:none"
       transform="scale(0.95489545)"
       clip-path="url(#clipPath2)" />
    <path
       id="path3"
       d="M 1,1 H 301 V 261 H 1 Z"
       style="fill:#ffffff;fill-opacity:1;fill-rule:nonzero;stroke:#000000;stroke-width:1;stroke-linecap:butt;stroke-linejoin:miter;stroke-miterlimit:10;stroke-dasharray:none;stroke-opacity:1"
       transform="matrix(0.95489545,0,0,0.95489545,0.47744772,0.47744772)"
       clip-path="url(#clipPath4)" />
    <g
       id="g4" />
    <text
       id="text4"
       xml:space="preserve"
       transform="matrix(0.95489545,0,0,0.95489545,101.577,18.143014)"
       clip-path="url(#clipPath5)"><tspan
         id="tspan4"
         style="font-variant:normal;font-weight:normal;font-size:12px;font-family:Arial;writing-mode:lr-tb;fill:#000000;fill-opacity:1;fill-rule:nonzero;stroke:none"
         x="0"
         y="0"> </tspan></text>
    <text
       id="text5"
       xml:space="preserve"
       transform="matrix(0.95489545,0,0,0.95489545,104.75501,18.143014)"
       clip-path="url(#clipPath6)"><tspan
         id="tspan5"
         style="font-style:italic;font-variant:normal;font-weight:normal;font-size:12px;font-family:Arial;writing-mode:lr-tb;fill:#000000;fill-opacity:1;fill-rule:nonzero;stroke:none"
         x="0"
         y="0">actions</tspan></text>
    <text
       id="text6"
       xml:space="preserve"
       transform="matrix(0.95489545,0,0,0.95489545,2.8646863,32.466445)"
       clip-path="url(#clipPath7)"><tspan
         id="tspan6"
         style="font-variant:normal;font-weight:700;font-size:12px;font-family:Arial;writing-mode:lr-tb;fill:#000000;fill-opacity:1;fill-rule:nonzero;stroke:none"
         x="0"
         y="0">^</tspan></text>
    <text
       id="text7"
       xml:space="preserve"
       transform="matrix(0.95489545,0,0,0.95489545,9.5489545,32.466445)"
       clip-path="url(#clipPath8)"><tspan
         id="tspan7"
         style="font-variant:normal;font-weight:normal;font-size:12px;font-family:Arial;writing-mode:lr-tb;fill:#000000;fill-opacity:1;fill-rule:nonzero;stroke:none"
         x="0"
         y="0">action2 : ActionDef2</tspan></text>
    <g
       id="g8" />
    <text
       id="text8"
       xml:space="preserve"
       transform="matrix(0.95489545,0,0,0.95489545,112.09577,32.466445)"
       clip-path="url(#clipPath9)"><tspan
         id="tspan8"
         style="font-variant:normal;font-weight:normal;font-size:12px;font-family:Arial;writing-mode:lr-tb;fill:#000000;fill-opacity:1;fill-rule:nonzero;stroke:none"
         x="0"
         y="0"> </tspan></text>
    <text
       id="text9"
       xml:space="preserve"
       transform="matrix(0.95489545,0,0,0.95489545,2.8646863,48.699668)"
       clip-path="url(#clipPath10)"><tspan
         id="tspan9"
         style="font-variant:normal;font-weight:normal;font-size:12px;font-family:Arial;writing-mode:lr-tb;fill:#000000;fill-opacity:1;fill-rule:nonzero;stroke:none"
         x="0"
         y="0">action1 : ActionDef1 [1..*] </tspan></text>
    <text
       id="text10"
       xml:space="preserve"
       transform="matrix(0.95489545,0,0,0.95489545,135.34151,48.699668)"
       clip-path="url(#clipPath11)"><tspan
         id="tspan10"
         style="font-variant:normal;font-weight:700;font-size:12px;font-family:Arial;writing-mode:lr-tb;fill:#000000;fill-opacity:1;fill-rule:nonzero;stroke:none"
         x="0"
         y="0">ordered nonunique</tspan></text>
    <g
       id="g11" />
    <text
       id="text11"
       xml:space="preserve"
       transform="matrix(0.95489545,0,0,0.95489545,239.73844,48.699668)"
       clip-path="url(#clipPath12)"><tspan
         id="tspan11"
         style="font-variant:normal;font-weight:normal;font-size:12px;font-family:Arial;writing-mode:lr-tb;fill:#000000;fill-opacity:1;fill-rule:nonzero;stroke:none"
         x="0"
         y="0"> </tspan></text>
    <g
       id="g12" />
    <text
       id="text12"
       xml:space="preserve"
       transform="matrix(0.95489545,0,0,0.95489545,2.8646863,64.93289)"
       clip-path="url(#clipPath13)"><tspan
         id="tspan12"
         style="font-variant:normal;font-weight:normal;font-size:12px;font-family:Arial;writing-mode:lr-tb;fill:#000000;fill-opacity:1;fill-rule:nonzero;stroke:none"
         x="0"
         y="0">action3R : ActionDef3R </tspan></text>
    <text
       id="text13"
       xml:space="preserve"
       transform="matrix(0.95489545,0,0,0.95489545,125.15098,64.93289)"
       clip-path="url(#clipPath14)"><tspan
         id="tspan13"
         style="font-variant:normal;font-weight:700;font-size:12px;font-family:Arial;writing-mode:lr-tb;fill:#000000;fill-opacity:1;fill-rule:nonzero;stroke:none"
         x="0"
         y="0">redefines</tspan></text>
    <text
       id="text14"
       xml:space="preserve"
       transform="matrix(0.95489545,0,0,0.95489545,176.08869,64.93289)"
       clip-path="url(#clipPath15)"><tspan
         id="tspan14"
         style="font-variant:normal;font-weight:normal;font-size:12px;font-family:Arial;writing-mode:lr-tb;fill:#000000;fill-opacity:1;fill-rule:nonzero;stroke:none"
         x="0"
         y="0"> action3</tspan></text>
    <g
       id="g15" />
    <text
       id="text15"
       xml:space="preserve"
       transform="matrix(0.95489545,0,0,0.95489545,216.20922,64.93289)"
       clip-path="url(#clipPath16)"><tspan
         id="tspan15"
         style="font-variant:normal;font-weight:normal;font-size:12px;font-family:Arial;writing-mode:lr-tb;fill:#000000;fill-opacity:1;fill-rule:nonzero;stroke:none"
         x="0"
         y="0"> </tspan></text>
    <text
       id="text16"
       xml:space="preserve"
       transform="matrix(0.95489545,0,0,0.95489545,2.8646863,81.166113)"
       clip-path="url(#clipPath17)"><tspan
         id="tspan16"
         style="font-variant:normal;font-weight:normal;font-size:12px;font-family:Arial;writing-mode:lr-tb;fill:#000000;fill-opacity:1;fill-rule:nonzero;stroke:none"
         x="0"
         y="0">action4R : ActionDef4R </tspan></text>
    <g
       id="g17" />
    <text
       id="text17"
       xml:space="preserve"
       transform="matrix(0.95489545,0,0,0.95489545,125.15098,81.166113)"
       clip-path="url(#clipPath18)"><tspan
         id="tspan17"
         style="font-variant:normal;font-weight:700;font-size:12px;font-family:Arial;writing-mode:lr-tb;fill:#000000;fill-opacity:1;fill-rule:nonzero;stroke:none"
         x="0"
         y="0">:&gt;&gt; </tspan></text>
    <text
       id="text18"
       xml:space="preserve"
       transform="matrix(0.95489545,0,0,0.95489545,145.53203,81.166113)"
       clip-path="url(#clipPath19)"><tspan
         id="tspan18"
         style="font-variant:normal;font-weight:normal;font-size:12px;font-family:Arial;writing-mode:lr-tb;fill:#000000;fill-opacity:1;fill-rule:nonzero;stroke:none"
         x="0"
         y="0">action4</tspan></text>
    <g
       id="g19" />
    <text
       id="text19"
       xml:space="preserve"
       transform="matrix(0.95489545,0,0,0.95489545,182.47455,81.166113)"
       clip-path="url(#clipPath20)"><tspan
         id="tspan19"
         style="font-variant:normal;font-weight:normal;font-size:12px;font-family:Arial;writing-mode:lr-tb;fill:#000000;fill-opacity:1;fill-rule:nonzero;stroke:none"
         x="0"
         y="0"> </tspan></text>
    <text
       id="text20"
       xml:space="preserve"
       transform="matrix(0.95489545,0,0,0.95489545,2.8646863,97.399336)"
       clip-path="url(#clipPath21)"><tspan
         id="tspan20"
         style="font-variant:normal;font-weight:700;font-size:12px;font-family:Arial;writing-mode:lr-tb;fill:#000000;fill-opacity:1;fill-rule:nonzero;stroke:none"
         x="0"
         y="0">:&gt;&gt;</tspan></text>
    <text
       id="text21"
       xml:space="preserve"
       transform="matrix(0.95489545,0,0,0.95489545,20.052804,97.399336)"
       clip-path="url(#clipPath22)"><tspan
         id="tspan21"
         style="font-variant:normal;font-weight:normal;font-size:12px;font-family:Arial;writing-mode:lr-tb;fill:#000000;fill-opacity:1;fill-rule:nonzero;stroke:none"
         x="0"
         y="0"> action5</tspan></text>
    <g
       id="g22" />
    <text
       id="text22"
       xml:space="preserve"
       transform="matrix(0.95489545,0,0,0.95489545,60.173333,97.399336)"
       clip-path="url(#clipPath23)"><tspan
         id="tspan22"
         style="font-variant:normal;font-weight:normal;font-size:12px;font-family:Arial;writing-mode:lr-tb;fill:#000000;fill-opacity:1;fill-rule:nonzero;stroke:none"
         x="0"
         y="0"> </tspan></text>
    <g
       id="g23" />
    <text
       id="text23"
       xml:space="preserve"
       transform="matrix(0.95489545,0,0,0.95489545,2.8646863,112.67766)"
       clip-path="url(#clipPath24)"><tspan
         id="tspan23"
         style="font-variant:normal;font-weight:normal;font-size:12px;font-family:Arial;writing-mode:lr-tb;fill:#000000;fill-opacity:1;fill-rule:nonzero;stroke:none"
         x="0"
         y="0">action6S : ActionDef6S [m] </tspan></text>
    <text
       id="text24"
       xml:space="preserve"
       transform="matrix(0.95489545,0,0,0.95489545,142.98067,112.67766)"
       clip-path="url(#clipPath25)"><tspan
         id="tspan24"
         style="font-variant:normal;font-weight:700;font-size:12px;font-family:Arial;writing-mode:lr-tb;fill:#000000;fill-opacity:1;fill-rule:nonzero;stroke:none"
         x="0"
         y="0">subsets</tspan></text>
    <text
       id="text25"
       xml:space="preserve"
       transform="matrix(0.95489545,0,0,0.95489545,186.27922,112.67766)"
       clip-path="url(#clipPath26)"><tspan
         id="tspan25"
         style="font-variant:normal;font-weight:normal;font-size:12px;font-family:Arial;writing-mode:lr-tb;fill:#000000;fill-opacity:1;fill-rule:nonzero;stroke:none"
         x="0"
         y="0"> action6</tspan></text>
    <g
       id="g26" />
    <text
       id="text26"
       xml:space="preserve"
       transform="matrix(0.95489545,0,0,0.95489545,226.39974,112.67766)"
       clip-path="url(#clipPath27)"><tspan
         id="tspan26"
         style="font-variant:normal;font-weight:normal;font-size:12px;font-family:Arial;writing-mode:lr-tb;fill:#000000;fill-opacity:1;fill-rule:nonzero;stroke:none"
         x="0"
         y="0"> </tspan></text>
    <text
       id="text27"
       xml:space="preserve"
       transform="matrix(0.95489545,0,0,0.95489545,2.8646863,128.91089)"
       clip-path="url(#clipPath28)"><tspan
         id="tspan27"
         style="font-variant:normal;font-weight:normal;font-size:12px;font-family:Arial;writing-mode:lr-tb;fill:#000000;fill-opacity:1;fill-rule:nonzero;stroke:none"
         x="0"
         y="0">action7S : ActionDef7S [m] </tspan></text>
    <text
       id="text28"
       xml:space="preserve"
       transform="matrix(0.95489545,0,0,0.95489545,142.98067,128.91089)"
       clip-path="url(#clipPath29)"><tspan
         id="tspan28"
         style="font-variant:normal;font-weight:700;font-size:12px;font-family:Arial;writing-mode:lr-tb;fill:#000000;fill-opacity:1;fill-rule:nonzero;stroke:none"
         x="0"
         y="0">:&gt;</tspan></text>
    <text
       id="text29"
       xml:space="preserve"
       transform="matrix(0.95489545,0,0,0.95489545,153.48452,128.91089)"
       clip-path="url(#clipPath30)"><tspan
         id="tspan29"
         style="font-variant:normal;font-weight:normal;font-size:12px;font-family:Arial;writing-mode:lr-tb;fill:#000000;fill-opacity:1;fill-rule:nonzero;stroke:none"
         x="0"
         y="0"> action7</tspan></text>
    <g
       id="g30" />
    <text
       id="text30"
       xml:space="preserve"
       transform="matrix(0.95489545,0,0,0.95489545,193.60505,128.91089)"
       clip-path="url(#clipPath31)"><tspan
         id="tspan30"
         style="font-variant:normal;font-weight:normal;font-size:12px;font-family:Arial;writing-mode:lr-tb;fill:#000000;fill-opacity:1;fill-rule:nonzero;stroke:none"
         x="0"
         y="0"> </tspan></text>
    <text
       id="text31"
       xml:space="preserve"
       transform="matrix(0.95489545,0,0,0.95489545,2.8646863,145.14411)"
       clip-path="url(#clipPath32)"><tspan
         id="tspan31"
         style="font-variant:normal;font-weight:normal;font-size:12px;font-family:Arial;writing-mode:lr-tb;fill:#000000;fill-opacity:1;fill-rule:nonzero;stroke:none"
         x="0"
         y="0">action8R </tspan></text>
    <text
       id="text32"
       xml:space="preserve"
       transform="matrix(0.95489545,0,0,0.95489545,51.265949,145.14411)"
       clip-path="url(#clipPath33)"><tspan
         id="tspan32"
         style="font-variant:normal;font-weight:700;font-size:12px;font-family:Arial;writing-mode:lr-tb;fill:#000000;fill-opacity:1;fill-rule:nonzero;stroke:none"
         x="0"
         y="0">=</tspan></text>
    <text
       id="text33"
       xml:space="preserve"
       transform="matrix(0.95489545,0,0,0.95489545,57.950218,145.14411)"
       clip-path="url(#clipPath34)"><tspan
         id="tspan33"
         style="font-variant:normal;font-weight:normal;font-size:12px;font-family:Arial;writing-mode:lr-tb;fill:#000000;fill-opacity:1;fill-rule:nonzero;stroke:none"
         x="0"
         y="0"> action8</tspan></text>
    <g
       id="g34" />
    <text
       id="text34"
       xml:space="preserve"
       transform="matrix(0.95489545,0,0,0.95489545,98.070747,145.14411)"
       clip-path="url(#clipPath35)"><tspan
         id="tspan34"
         style="font-variant:normal;font-weight:normal;font-size:12px;font-family:Arial;writing-mode:lr-tb;fill:#000000;fill-opacity:1;fill-rule:nonzero;stroke:none"
         x="0"
         y="0"> </tspan></text>
    <text
       id="text35"
       xml:space="preserve"
       transform="matrix(0.95489545,0,0,0.95489545,2.8646863,161.37733)"
       clip-path="url(#clipPath36)"><tspan
         id="tspan35"
         style="font-variant:normal;font-weight:700;font-size:12px;font-family:Arial;writing-mode:lr-tb;fill:#000000;fill-opacity:1;fill-rule:nonzero;stroke:none"
         x="0"
         y="0">ref</tspan></text>
    <g
       id="g36" />
    <text
       id="text36"
       xml:space="preserve"
       transform="matrix(0.95489545,0,0,0.95489545,17.501443,161.37733)"
       clip-path="url(#clipPath37)"><tspan
         id="tspan36"
         style="font-variant:normal;font-weight:normal;font-size:12px;font-family:Arial;writing-mode:lr-tb;fill:#000000;fill-opacity:1;fill-rule:nonzero;stroke:none"
         x="0"
         y="0"> action9 : ActionDef9</tspan></text>
    <g
       id="g37" />
    <text
       id="text37"
       xml:space="preserve"
       transform="matrix(0.95489545,0,0,0.95489545,123.22627,161.37733)"
       clip-path="url(#clipPath38)"><tspan
         id="tspan37"
         style="font-variant:normal;font-weight:normal;font-size:12px;font-family:Arial;writing-mode:lr-tb;fill:#000000;fill-opacity:1;fill-rule:nonzero;stroke:none"
         x="0"
         y="0"> </tspan></text>
    <text
       id="text38"
       xml:space="preserve"
       transform="matrix(0.95489545,0,0,0.95489545,2.8646863,177.61055)"
       clip-path="url(#clipPath39)"><tspan
         id="tspan38"
         style="font-variant:normal;font-weight:700;font-size:12px;font-family:Arial;writing-mode:lr-tb;fill:#000000;fill-opacity:1;fill-rule:nonzero;stroke:none"
         x="0"
         y="0">perform</tspan></text>
    <text
       id="text39"
       xml:space="preserve"
       transform="matrix(0.95489545,0,0,0.95489545,46.148307,177.61055)"
       clip-path="url(#clipPath40)"><tspan
         id="tspan39"
         style="font-variant:normal;font-weight:normal;font-size:12px;font-family:Arial;writing-mode:lr-tb;fill:#000000;fill-opacity:1;fill-rule:nonzero;stroke:none"
         x="0"
         y="0"> action10</tspan></text>
    <g
       id="g40" />
    <text
       id="text40"
       xml:space="preserve"
       transform="matrix(0.95489545,0,0,0.95489545,92.654699,177.61055)"
       clip-path="url(#clipPath41)"><tspan
         id="tspan40"
         style="font-variant:normal;font-weight:normal;font-size:12px;font-family:Arial;writing-mode:lr-tb;fill:#000000;fill-opacity:1;fill-rule:nonzero;stroke:none"
         x="0"
         y="0"> </tspan></text>
    <text
       id="text41"
       xml:space="preserve"
       transform="matrix(0.95489545,0,0,0.95489545,2.8646863,192.88888)"
       clip-path="url(#clipPath42)"><tspan
         id="tspan41"
         style="font-variant:normal;font-weight:normal;font-size:12px;font-family:Arial;writing-mode:lr-tb;fill:#000000;fill-opacity:1;fill-rule:nonzero;stroke:none"
         x="0"
         dx="0 0 0 0 0 0 0 -0.89062434"
         y="0">action11</tspan></text>
    <g
       id="g42" />
    <text
       id="text42"
       xml:space="preserve"
       transform="matrix(0.95489545,0,0,0.95489545,45.327693,192.88888)"
       clip-path="url(#clipPath43)"><tspan
         id="tspan42"
         style="font-variant:normal;font-weight:normal;font-size:12px;font-family:Arial;writing-mode:lr-tb;fill:#000000;fill-opacity:1;fill-rule:nonzero;stroke:none"
         x="0"
         y="0"> </tspan></text>
    <text
       id="text43"
       xml:space="preserve"
       transform="matrix(0.95489545,0,0,0.95489545,2.8646863,210.077)"
       clip-path="url(#clipPath44)"><tspan
         id="tspan43"
         style="font-variant:normal;font-weight:700;font-size:14px;font-family:Arial;writing-mode:lr-tb;fill:#000000;fill-opacity:1;fill-rule:nonzero;stroke:none"
         x="0"
         y="0">...</tspan></text>
    <g
       id="g44" />
    <text
       id="text44"
       xml:space="preserve"
       transform="matrix(0.95489545,0,0,0.95489545,13.995186,210.077)"
       clip-path="url(#clipPath45)"><tspan
         id="tspan44"
         style="font-variant:normal;font-weight:700;font-size:14px;font-family:Arial;writing-mode:lr-tb;fill:#000000;fill-opacity:1;fill-rule:nonzero;stroke:none"
         x="0"
         y="0"> </tspan></text>
  </g>
</svg>
